<svg xmlns="http://www.w3.org/2000/svg" xmlns:xlink="http://www.w3.org/1999/xlink" width="2000" zoomAndPan="magnify" viewBox="0 0 1500 1499.999933" height="2000" preserveAspectRatio="xMidYMid meet" version="1.0"><defs><filter x="0%" y="0%" width="100%" height="100%" id="bf952f73e7"><feColorMatrix values="0 0 0 0 1 0 0 0 0 1 0 0 0 0 1 0 0 0 1 0" color-interpolation-filters="sRGB"/></filter><g/><mask id="1d69b0cad9"><g filter="url(#bf952f73e7)"><rect x="-150" width="1800" fill="#000000" y="-149.999993" height="1799.99992" fill-opacity="0.57"/></g></mask><clipPath id="32c759ed85"><path d="M 0.515625 0.515625 L 1071.515625 0.515625 L 1071.515625 1071.515625 L 0.515625 1071.515625 Z M 0.515625 0.515625 " clip-rule="nonzero"/></clipPath><clipPath id="9637411160"><rect x="0" width="1072" y="0" height="1072"/></clipPath><clipPath id="8e475a4ef8"><rect x="0" width="1317" y="0" height="764"/></clipPath></defs><rect x="-150" width="1800" fill="#ffffff" y="-149.999993" height="1799.99992" fill-opacity="1"/><rect x="-150" width="1800" fill="#000000" y="-149.999993" height="1799.99992" fill-opacity="1"/><g mask="url(#1d69b0cad9)"><g transform="matrix(1, 0, 0, 1, 214, 214)"><g clip-path="url(#9637411160)"><g clip-path="url(#32c759ed85)"><path fill="#ff751f" d="M 1056.546875 536 L 958.730469 633.816406 L 943.191406 580.527344 L 999.109375 478.558594 Z M 992.164062 786.167969 L 914.644531 808.777344 L 914.644531 692.835938 L 953.582031 653.898438 Z M 904.085938 904.085938 L 765.746094 904.085938 L 792.4375 855.414062 L 904.085938 822.859375 Z M 681.660156 1035.453125 L 610.859375 996.621094 L 692.835938 914.644531 L 747.90625 914.644531 Z M 536 1056.546875 L 438.179688 958.730469 L 491.46875 943.191406 L 593.4375 999.109375 Z M 285.828125 992.164062 L 263.222656 914.644531 L 379.160156 914.644531 L 418.101562 953.582031 Z M 167.914062 904.085938 L 167.914062 765.746094 L 216.582031 792.4375 L 249.140625 904.085938 Z M 36.554688 681.660156 L 75.375 610.859375 L 157.355469 692.835938 L 157.355469 747.90625 Z M 15.453125 536 L 113.269531 438.179688 L 128.804688 491.46875 L 72.890625 593.4375 Z M 79.84375 285.828125 L 157.355469 263.222656 L 157.355469 379.160156 L 118.414062 418.101562 Z M 167.914062 167.914062 L 306.253906 167.914062 L 279.5625 216.582031 L 167.914062 249.140625 Z M 390.339844 36.554688 L 461.140625 75.375 L 379.160156 157.355469 L 324.089844 157.355469 Z M 536 15.453125 L 633.816406 113.269531 L 580.527344 128.804688 L 478.558594 72.890625 Z M 786.167969 79.835938 L 808.777344 157.355469 L 692.835938 157.355469 L 653.898438 118.414062 Z M 904.085938 167.914062 L 904.085938 306.253906 L 855.414062 279.5625 L 822.859375 167.914062 Z M 914.644531 482.644531 L 914.644531 394.097656 L 991.335938 470.789062 L 939.007812 566.195312 Z M 914.644531 610.625 L 914.644531 520.371094 L 931.828125 579.289062 Z M 914.644531 632.585938 L 936.003906 593.628906 L 950.210938 642.335938 L 914.644531 677.902344 Z M 859.597656 732.941406 L 904.085938 651.839844 L 904.085938 688.460938 Z M 841.464844 766.015625 L 904.085938 703.394531 L 904.085938 811.855469 L 799.617188 842.320312 Z M 750.96875 856.511719 L 814.792969 792.6875 L 785.28125 846.503906 Z M 735.441406 872.039062 L 778.097656 859.597656 L 753.707031 904.085938 L 703.394531 904.085938 Z M 625.558594 904.085938 L 714.363281 878.1875 L 688.460938 904.085938 Z M 589.347656 914.644531 L 677.902344 914.644531 L 601.210938 991.335938 L 505.804688 939.007812 Z M 461.375 914.644531 L 551.628906 914.644531 L 492.707031 931.820312 Z M 439.410156 914.644531 L 478.367188 936.003906 L 429.664062 950.210938 L 394.097656 914.644531 Z M 339.058594 859.605469 L 420.160156 904.085938 L 383.539062 904.085938 Z M 305.984375 841.464844 L 368.601562 904.085938 L 260.140625 904.085938 L 229.679688 799.617188 Z M 215.488281 750.96875 L 279.3125 814.792969 L 225.496094 785.28125 Z M 199.957031 735.441406 L 212.402344 778.09375 L 167.914062 753.707031 L 167.914062 703.394531 Z M 167.914062 625.558594 L 193.808594 714.355469 L 167.914062 688.460938 Z M 157.355469 589.347656 L 157.355469 677.902344 L 80.664062 601.210938 L 132.988281 505.804688 Z M 157.355469 461.375 L 157.355469 551.628906 L 140.167969 492.707031 Z M 157.355469 439.410156 L 135.992188 478.375 L 121.785156 429.664062 L 157.355469 394.097656 Z M 212.390625 339.058594 L 167.914062 420.160156 L 167.914062 383.539062 Z M 230.53125 305.984375 L 167.914062 368.601562 L 167.914062 260.140625 L 272.382812 229.679688 Z M 321.027344 215.488281 L 257.207031 279.3125 L 286.714844 225.496094 Z M 336.558594 199.957031 L 293.902344 212.398438 L 318.292969 167.914062 L 368.601562 167.914062 Z M 446.441406 167.914062 L 357.632812 193.816406 L 383.539062 167.914062 Z M 482.644531 157.355469 L 394.097656 157.355469 L 470.789062 80.671875 L 566.195312 132.988281 Z M 610.625 157.355469 L 520.371094 157.355469 L 579.289062 140.167969 Z M 632.585938 157.355469 L 593.621094 135.992188 L 642.335938 121.785156 L 677.902344 157.355469 Z M 732.949219 212.398438 L 651.839844 167.914062 L 688.460938 167.914062 Z M 766.023438 230.539062 L 703.394531 167.914062 L 811.855469 167.914062 L 842.320312 272.382812 Z M 856.503906 321.027344 L 792.6875 257.207031 L 846.503906 286.714844 Z M 872.039062 336.558594 L 859.597656 293.902344 L 904.085938 318.300781 L 904.085938 368.601562 Z M 904.085938 484.15625 L 904.085938 629.875 L 832.933594 759.613281 L 729.894531 862.660156 L 587.839844 904.085938 L 442.121094 904.085938 L 312.386719 832.933594 L 209.347656 729.894531 L 167.914062 587.839844 L 167.914062 442.121094 L 239.066406 312.386719 L 342.105469 209.347656 L 484.15625 167.914062 L 629.875 167.914062 L 759.613281 239.066406 L 862.652344 342.105469 Z M 878.1875 357.632812 L 904.085938 383.539062 L 904.085938 446.441406 Z M 1035.445312 390.339844 L 996.621094 461.140625 L 914.644531 379.160156 L 914.644531 324.089844 Z M 1049.785156 386.164062 L 914.644531 312.042969 L 914.644531 157.355469 L 819.769531 157.355469 L 793.347656 66.75 L 645.378906 109.898438 L 536 0.515625 L 468.921875 67.59375 L 386.164062 22.210938 L 312.042969 157.355469 L 157.355469 157.355469 L 157.355469 252.226562 L 66.742188 278.648438 L 109.898438 426.617188 L 0.515625 536 L 67.59375 603.078125 L 22.210938 685.832031 L 157.355469 759.957031 L 157.355469 914.644531 L 252.21875 914.644531 L 278.648438 1005.257812 L 426.617188 962.101562 L 536 1071.480469 L 603.078125 1004.402344 L 685.832031 1049.785156 L 759.957031 914.644531 L 914.644531 914.644531 L 914.644531 819.78125 L 1005.25 793.347656 L 962.101562 645.378906 L 1071.480469 536 L 1004.402344 468.921875 L 1049.785156 386.164062 " fill-opacity="1" fill-rule="nonzero"/></g></g></g></g><g transform="matrix(1, 0, 0, 1, 75, 368)"><g clip-path="url(#8e475a4ef8)"><g fill="#ffffff" fill-opacity="1"><g transform="translate(1.412493, 576.249553)"><g><path d="M 38.09375 -353.046875 C 40.800781 -353.046875 43.34375 -353.046875 45.71875 -353.046875 C 48.09375 -353.046875 50.460938 -353.046875 52.828125 -353.046875 C 57.566406 -353.046875 62.476562 -353.046875 67.5625 -353.046875 C 72.644531 -353.046875 77.554688 -353.046875 82.296875 -353.046875 C 86.015625 -353.046875 89.648438 -353.128906 93.203125 -353.296875 C 96.765625 -353.472656 100.238281 -353.5625 103.625 -353.5625 C 104.976562 -353.894531 106.414062 -353.976562 107.9375 -353.8125 C 109.46875 -353.644531 110.910156 -353.390625 112.265625 -353.046875 C 112.941406 -353.046875 113.703125 -352.960938 114.546875 -352.796875 C 115.398438 -352.628906 116.164062 -352.546875 116.84375 -352.546875 C 120.5625 -352.546875 124.03125 -352.628906 127.25 -352.796875 C 130.46875 -352.960938 133.769531 -353.046875 137.15625 -353.046875 C 140.882812 -353.046875 144.523438 -353.046875 148.078125 -353.046875 C 151.628906 -353.046875 155.097656 -353.046875 158.484375 -353.046875 C 159.835938 -353.046875 161.023438 -352.960938 162.046875 -352.796875 C 163.066406 -352.628906 164.253906 -352.546875 165.609375 -352.546875 C 167.972656 -351.523438 170.171875 -350.253906 172.203125 -348.734375 C 174.234375 -347.210938 176.265625 -345.769531 178.296875 -344.40625 C 180.328125 -343.050781 182.53125 -341.613281 184.90625 -340.09375 C 187.28125 -338.570312 189.648438 -336.960938 192.015625 -335.265625 C 193.367188 -334.253906 194.890625 -333.238281 196.578125 -332.21875 C 198.273438 -331.207031 199.800781 -330.191406 201.15625 -329.171875 C 205.5625 -326.460938 210.472656 -323.242188 215.890625 -319.515625 C 217.585938 -318.503906 219.195312 -317.488281 220.71875 -316.46875 C 222.238281 -315.457031 223.675781 -314.273438 225.03125 -312.921875 C 225.707031 -312.578125 226.46875 -312.148438 227.3125 -311.640625 C 228.164062 -311.140625 228.929688 -310.550781 229.609375 -309.875 C 236.046875 -305.46875 241.972656 -301.738281 247.390625 -298.6875 C 248.398438 -298.007812 249.410156 -297.25 250.421875 -296.40625 C 251.441406 -295.5625 252.460938 -294.800781 253.484375 -294.125 C 257.210938 -291.75 260.851562 -289.375 264.40625 -287 C 267.957031 -284.632812 271.425781 -282.097656 274.8125 -279.390625 C 278.539062 -277.015625 282.265625 -274.640625 285.984375 -272.265625 C 289.710938 -269.898438 293.269531 -267.363281 296.65625 -264.65625 C 301.738281 -261.613281 306.816406 -258.566406 311.890625 -255.515625 C 316.972656 -252.460938 321.890625 -249.242188 326.640625 -245.859375 C 329.003906 -244.503906 331.203125 -243.148438 333.234375 -241.796875 C 335.265625 -240.441406 337.296875 -238.921875 339.328125 -237.234375 C 340.679688 -236.554688 341.695312 -235.878906 342.375 -235.203125 C 349.488281 -230.796875 356.941406 -225.882812 364.734375 -220.46875 C 365.410156 -220.125 366.085938 -219.78125 366.765625 -219.4375 C 367.441406 -219.101562 367.945312 -218.769531 368.28125 -218.4375 C 372.007812 -215.382812 375.90625 -212.585938 379.96875 -210.046875 C 384.03125 -207.503906 388.265625 -204.878906 392.671875 -202.171875 C 394.367188 -200.816406 396.234375 -199.71875 398.265625 -198.875 C 400.296875 -198.03125 402.15625 -197.097656 403.84375 -196.078125 C 407.226562 -193.710938 410.53125 -191.425781 413.75 -189.21875 C 416.96875 -187.019531 420.269531 -184.90625 423.65625 -182.875 C 426.363281 -181.519531 428.988281 -179.992188 431.53125 -178.296875 C 434.070312 -176.609375 436.53125 -174.914062 438.90625 -173.21875 C 440.9375 -171.863281 442.878906 -170.59375 444.734375 -169.40625 C 446.597656 -168.226562 448.378906 -167.128906 450.078125 -166.109375 C 452.109375 -164.753906 454.222656 -163.398438 456.421875 -162.046875 C 458.617188 -160.691406 460.738281 -159.335938 462.78125 -157.984375 C 466.164062 -155.953125 469.460938 -153.921875 472.671875 -151.890625 C 475.890625 -149.859375 479.191406 -147.65625 482.578125 -145.28125 C 488.003906 -141.894531 493.253906 -138.253906 498.328125 -134.359375 C 503.410156 -130.460938 508.492188 -126.65625 513.578125 -122.9375 C 515.265625 -121.582031 516.953125 -120.394531 518.640625 -119.375 C 520.335938 -118.363281 522.035156 -117.179688 523.734375 -115.828125 C 524.410156 -115.484375 524.914062 -115.140625 525.25 -114.796875 C 525.59375 -114.460938 525.929688 -114.125 526.265625 -113.78125 C 526.265625 -118.53125 526.265625 -123.273438 526.265625 -128.015625 C 526.265625 -132.753906 526.265625 -137.328125 526.265625 -141.734375 C 525.929688 -149.179688 525.847656 -156.628906 526.015625 -164.078125 C 526.179688 -171.523438 525.925781 -178.976562 525.25 -186.4375 C 524.914062 -192.863281 524.832031 -199.125 525 -205.21875 C 525.164062 -211.320312 525.25 -217.585938 525.25 -224.015625 C 525.25 -226.722656 525.25 -229.429688 525.25 -232.140625 C 525.25 -234.859375 525.421875 -237.398438 525.765625 -239.765625 C 525.765625 -241.117188 525.847656 -242.300781 526.015625 -243.3125 C 526.179688 -244.332031 526.4375 -245.519531 526.78125 -246.875 C 526.78125 -247.550781 526.78125 -248.226562 526.78125 -248.90625 C 526.78125 -249.582031 526.78125 -250.257812 526.78125 -250.9375 C 526.4375 -252.976562 526.265625 -255.015625 526.265625 -257.046875 C 526.265625 -259.078125 526.265625 -261.109375 526.265625 -263.140625 C 526.265625 -267.535156 526.265625 -271.847656 526.265625 -276.078125 C 526.265625 -280.316406 525.925781 -284.640625 525.25 -289.046875 C 524.914062 -292.765625 524.832031 -296.316406 525 -299.703125 C 525.164062 -303.097656 525.082031 -306.488281 524.75 -309.875 C 524.40625 -314.269531 524.234375 -318.5 524.234375 -322.5625 C 524.234375 -326.632812 524.234375 -330.703125 524.234375 -334.765625 C 524.234375 -337.128906 524.316406 -339.582031 524.484375 -342.125 C 524.660156 -344.664062 524.914062 -347.125 525.25 -349.5 C 525.925781 -349.5 526.601562 -349.582031 527.28125 -349.75 C 527.957031 -349.914062 528.632812 -350 529.3125 -350 C 531.351562 -350.675781 533.390625 -351.015625 535.421875 -351.015625 C 537.453125 -351.015625 539.484375 -351.1875 541.515625 -351.53125 C 541.847656 -351.53125 542.015625 -351.53125 542.015625 -351.53125 C 542.015625 -351.53125 542.1875 -351.53125 542.53125 -351.53125 C 545.238281 -351.1875 547.773438 -351.015625 550.140625 -351.015625 C 552.515625 -351.015625 554.890625 -351.015625 557.265625 -351.015625 C 558.953125 -351.015625 560.554688 -351.179688 562.078125 -351.515625 C 563.609375 -351.859375 565.050781 -352.03125 566.40625 -352.03125 C 568.769531 -352.375 571.050781 -352.710938 573.25 -353.046875 C 575.457031 -353.390625 577.75 -353.390625 580.125 -353.046875 C 585.875 -352.710938 591.796875 -352.546875 597.890625 -352.546875 C 603.992188 -352.546875 610.09375 -352.546875 616.1875 -352.546875 C 617.875 -352.546875 619.648438 -352.628906 621.515625 -352.796875 C 623.378906 -352.960938 625.160156 -353.046875 626.859375 -353.046875 C 629.566406 -353.046875 632.101562 -352.960938 634.46875 -352.796875 C 636.84375 -352.628906 639.210938 -352.546875 641.578125 -352.546875 C 642.929688 -352.546875 644.285156 -352.628906 645.640625 -352.796875 C 647.003906 -352.960938 648.363281 -353.046875 649.71875 -353.046875 C 650.050781 -353.046875 650.472656 -353.046875 650.984375 -353.046875 C 651.492188 -353.046875 651.914062 -353.046875 652.25 -353.046875 C 651.914062 -351.359375 651.75 -349.75 651.75 -348.21875 C 651.75 -346.695312 651.75 -345.085938 651.75 -343.390625 C 651.75 -337.972656 651.832031 -332.640625 652 -327.390625 C 652.164062 -322.140625 652.25 -316.640625 652.25 -310.890625 C 652.59375 -308.515625 652.847656 -305.882812 653.015625 -303 C 653.179688 -300.125 653.4375 -297.332031 653.78125 -294.625 C 653.78125 -294.289062 653.78125 -293.867188 653.78125 -293.359375 C 653.78125 -292.847656 653.78125 -292.253906 653.78125 -291.578125 C 653.78125 -287.179688 653.78125 -282.863281 653.78125 -278.625 C 653.78125 -274.394531 653.78125 -270.25 653.78125 -266.1875 C 653.78125 -264.832031 653.691406 -263.390625 653.515625 -261.859375 C 653.347656 -260.335938 653.097656 -258.734375 652.765625 -257.046875 C 652.765625 -256.367188 652.675781 -255.601562 652.5 -254.75 C 652.332031 -253.90625 652.25 -253.144531 652.25 -252.46875 C 652.25 -241.96875 652.25 -231.296875 652.25 -220.453125 C 652.25 -209.617188 652.421875 -198.785156 652.765625 -187.953125 C 653.097656 -178.472656 653.179688 -168.90625 653.015625 -159.25 C 652.847656 -149.601562 652.929688 -139.867188 653.265625 -130.046875 C 653.265625 -126.660156 653.265625 -123.359375 653.265625 -120.140625 C 653.265625 -116.921875 653.4375 -113.617188 653.78125 -110.234375 C 654.457031 -103.796875 654.707031 -97.53125 654.53125 -91.4375 C 654.363281 -85.34375 654.28125 -79.25 654.28125 -73.15625 C 654.28125 -68.070312 654.28125 -62.988281 654.28125 -57.90625 C 654.28125 -52.832031 654.453125 -47.753906 654.796875 -42.671875 C 654.796875 -38.265625 654.796875 -34.03125 654.796875 -29.96875 C 654.796875 -25.90625 654.796875 -21.671875 654.796875 -17.265625 C 655.128906 -15.910156 655.210938 -14.640625 655.046875 -13.453125 C 654.878906 -12.273438 654.796875 -11.007812 654.796875 -9.65625 C 654.453125 -8.300781 654.363281 -6.691406 654.53125 -4.828125 C 654.707031 -2.960938 654.796875 -1.179688 654.796875 0.515625 C 654.117188 0.847656 652.929688 1.015625 651.234375 1.015625 C 644.460938 1.015625 637.601562 1.015625 630.65625 1.015625 C 623.71875 1.015625 616.863281 1.1875 610.09375 1.53125 C 606.707031 1.53125 603.148438 1.441406 599.421875 1.265625 C 595.691406 1.097656 591.96875 1.1875 588.25 1.53125 C 585.875 1.53125 583.414062 1.613281 580.875 1.78125 C 578.332031 1.945312 575.707031 2.203125 573 2.546875 C 572.664062 2.546875 572.242188 2.546875 571.734375 2.546875 C 571.222656 2.546875 570.628906 2.546875 569.953125 2.546875 C 566.566406 2.546875 563.179688 2.546875 559.796875 2.546875 C 556.410156 2.546875 553.023438 2.546875 549.640625 2.546875 C 546.585938 2.203125 543.625 1.945312 540.75 1.78125 C 537.875 1.613281 535.082031 1.53125 532.375 1.53125 C 531.007812 1.53125 529.648438 1.53125 528.296875 1.53125 C 526.941406 1.53125 525.421875 1.53125 523.734375 1.53125 C 522.378906 0.164062 520.851562 -1.101562 519.15625 -2.28125 C 517.46875 -3.46875 515.773438 -4.570312 514.078125 -5.59375 C 510.691406 -8.300781 507.132812 -10.921875 503.40625 -13.453125 C 499.6875 -15.992188 495.960938 -18.453125 492.234375 -20.828125 C 489.867188 -22.523438 487.5 -24.050781 485.125 -25.40625 C 482.75 -26.757812 480.207031 -28.113281 477.5 -29.46875 C 475.46875 -30.820312 473.4375 -32.175781 471.40625 -33.53125 C 469.375 -34.882812 467.515625 -36.238281 465.828125 -37.59375 C 461.078125 -41.3125 456.332031 -44.359375 451.59375 -46.734375 C 448.550781 -48.429688 445.585938 -50.378906 442.703125 -52.578125 C 439.828125 -54.773438 437.035156 -56.722656 434.328125 -58.421875 C 432.628906 -60.109375 430.765625 -61.546875 428.734375 -62.734375 C 426.703125 -63.921875 424.671875 -65.191406 422.640625 -66.546875 C 419.929688 -68.921875 417.050781 -70.785156 414 -72.140625 C 413.320312 -72.816406 412.304688 -73.492188 410.953125 -74.171875 C 407.566406 -75.859375 404.265625 -77.71875 401.046875 -79.75 C 397.835938 -81.78125 394.535156 -83.644531 391.140625 -85.34375 C 385.046875 -89.738281 379.125 -93.632812 373.375 -97.03125 C 372.019531 -98.039062 370.75 -98.96875 369.5625 -99.8125 C 368.375 -100.664062 367.101562 -101.597656 365.75 -102.609375 C 363.71875 -103.628906 361.851562 -104.984375 360.15625 -106.671875 C 358.125 -108.367188 356.09375 -110.0625 354.0625 -111.75 C 352.03125 -113.445312 350 -115.144531 347.96875 -116.84375 C 343.90625 -120.226562 339.671875 -123.359375 335.265625 -126.234375 C 330.867188 -129.109375 326.46875 -132.070312 322.0625 -135.125 C 319.6875 -136.8125 317.398438 -138.332031 315.203125 -139.6875 C 313.003906 -141.050781 310.890625 -142.410156 308.859375 -143.765625 C 306.484375 -145.453125 304.191406 -147.140625 301.984375 -148.828125 C 299.785156 -150.523438 297.671875 -152.050781 295.640625 -153.40625 C 293.953125 -154.425781 292.175781 -155.523438 290.3125 -156.703125 C 288.445312 -157.890625 286.671875 -158.992188 284.984375 -160.015625 C 283.628906 -161.023438 282.101562 -162.125 280.40625 -163.3125 C 278.71875 -164.5 277.023438 -165.601562 275.328125 -166.625 C 272.273438 -168.65625 269.222656 -170.597656 266.171875 -172.453125 C 263.128906 -174.316406 260.085938 -176.265625 257.046875 -178.296875 C 256.367188 -178.972656 255.601562 -179.648438 254.75 -180.328125 C 253.90625 -181.003906 253.144531 -181.515625 252.46875 -181.859375 C 249.757812 -184.234375 246.878906 -186.347656 243.828125 -188.203125 C 240.785156 -190.066406 237.738281 -192.015625 234.6875 -194.046875 C 232.320312 -195.398438 230.035156 -196.671875 227.828125 -197.859375 C 225.628906 -199.046875 223.34375 -200.316406 220.96875 -201.671875 C 218.9375 -203.023438 216.90625 -204.289062 214.875 -205.46875 C 212.84375 -206.65625 210.8125 -207.929688 208.78125 -209.296875 C 205.726562 -211.660156 202.675781 -213.941406 199.625 -216.140625 C 196.582031 -218.347656 193.539062 -220.632812 190.5 -223 C 187.113281 -225.375 183.722656 -227.660156 180.328125 -229.859375 C 176.941406 -232.066406 173.390625 -234.1875 169.671875 -236.21875 C 167.640625 -236.894531 166.113281 -237.570312 165.09375 -238.25 C 165.09375 -236.894531 165.09375 -235.625 165.09375 -234.4375 C 165.09375 -233.25 165.09375 -231.976562 165.09375 -230.625 C 165.4375 -229.945312 165.609375 -228.757812 165.609375 -227.0625 C 165.609375 -218.257812 165.609375 -209.285156 165.609375 -200.140625 C 165.609375 -191.003906 165.609375 -182.03125 165.609375 -173.21875 C 165.609375 -170.851562 165.609375 -168.3125 165.609375 -165.59375 C 165.609375 -162.882812 165.4375 -160.175781 165.09375 -157.46875 C 164.757812 -155.4375 164.59375 -153.40625 164.59375 -151.375 C 164.59375 -149.34375 164.421875 -147.484375 164.078125 -145.796875 C 164.078125 -133.597656 164.242188 -121.398438 164.578125 -109.203125 C 164.921875 -97.015625 164.753906 -84.828125 164.078125 -72.640625 C 163.742188 -60.785156 163.660156 -48.847656 163.828125 -36.828125 C 163.992188 -24.804688 163.910156 -12.703125 163.578125 -0.515625 C 163.578125 -0.171875 163.578125 0.164062 163.578125 0.5 C 163.578125 0.84375 163.578125 1.351562 163.578125 2.03125 C 162.210938 2.03125 160.769531 2.113281 159.25 2.28125 C 157.726562 2.457031 156.117188 2.546875 154.421875 2.546875 C 146.640625 2.546875 138.769531 2.546875 130.8125 2.546875 C 122.851562 2.546875 114.976562 2.546875 107.1875 2.546875 C 101.769531 2.878906 96.519531 3.046875 91.4375 3.046875 C 86.351562 3.046875 81.273438 3.21875 76.203125 3.5625 C 72.816406 3.894531 69.34375 4.0625 65.78125 4.0625 C 62.226562 4.0625 58.585938 4.0625 54.859375 4.0625 C 51.816406 4.0625 48.769531 4.144531 45.71875 4.3125 C 42.664062 4.488281 39.617188 4.578125 36.578125 4.578125 C 36.234375 2.878906 35.976562 1.351562 35.8125 0 C 35.644531 -1.351562 35.5625 -2.707031 35.5625 -4.0625 C 35.5625 -10.15625 35.5625 -16.332031 35.5625 -22.59375 C 35.5625 -28.863281 35.5625 -35.046875 35.5625 -41.140625 C 35.5625 -43.847656 35.644531 -46.300781 35.8125 -48.5 C 35.976562 -50.707031 36.234375 -53 36.578125 -55.375 C 36.910156 -56.050781 37.078125 -57.066406 37.078125 -58.421875 C 37.078125 -71.960938 37.078125 -85.503906 37.078125 -99.046875 C 37.078125 -112.597656 36.910156 -126.148438 36.578125 -139.703125 C 36.578125 -145.453125 36.488281 -151.117188 36.3125 -156.703125 C 36.144531 -162.296875 36.0625 -167.800781 36.0625 -173.21875 C 36.0625 -179.988281 36.144531 -186.675781 36.3125 -193.28125 C 36.488281 -199.882812 36.742188 -206.40625 37.078125 -212.84375 C 37.078125 -215.894531 37.078125 -218.859375 37.078125 -221.734375 C 37.078125 -224.609375 37.25 -227.398438 37.59375 -230.109375 C 38.269531 -237.566406 38.519531 -244.9375 38.34375 -252.21875 C 38.175781 -259.5 38.09375 -266.691406 38.09375 -273.796875 C 38.09375 -279.554688 38.09375 -285.484375 38.09375 -291.578125 C 38.09375 -297.679688 38.09375 -303.609375 38.09375 -309.359375 C 38.4375 -312.066406 38.691406 -314.601562 38.859375 -316.96875 C 39.023438 -319.34375 39.28125 -321.71875 39.625 -324.09375 C 39.625 -324.4375 39.625 -324.691406 39.625 -324.859375 C 39.625 -325.023438 39.625 -325.28125 39.625 -325.625 C 39.28125 -327.65625 39.109375 -329.6875 39.109375 -331.71875 C 39.109375 -333.75 38.941406 -335.609375 38.609375 -337.296875 C 38.265625 -339.328125 38.09375 -341.441406 38.09375 -343.640625 C 38.09375 -345.847656 38.09375 -347.96875 38.09375 -350 C 38.09375 -350.675781 38.09375 -351.269531 38.09375 -351.78125 C 38.09375 -352.289062 38.09375 -352.710938 38.09375 -353.046875 Z M 38.09375 -353.046875 "/></g></g></g><g fill="#ffffff" fill-opacity="1"><g transform="translate(657.721417, 576.249553)"><g><path d="M 38.09375 -353.046875 C 40.800781 -353.046875 43.34375 -353.046875 45.71875 -353.046875 C 48.09375 -353.046875 50.460938 -353.046875 52.828125 -353.046875 C 57.566406 -353.046875 62.476562 -353.046875 67.5625 -353.046875 C 72.644531 -353.046875 77.554688 -353.046875 82.296875 -353.046875 C 86.015625 -353.046875 89.648438 -353.128906 93.203125 -353.296875 C 96.765625 -353.472656 100.238281 -353.5625 103.625 -353.5625 C 104.976562 -353.894531 106.414062 -353.976562 107.9375 -353.8125 C 109.46875 -353.644531 110.910156 -353.390625 112.265625 -353.046875 C 112.941406 -353.046875 113.703125 -352.960938 114.546875 -352.796875 C 115.398438 -352.628906 116.164062 -352.546875 116.84375 -352.546875 C 120.5625 -352.546875 124.03125 -352.628906 127.25 -352.796875 C 130.46875 -352.960938 133.769531 -353.046875 137.15625 -353.046875 C 140.882812 -353.046875 144.523438 -353.046875 148.078125 -353.046875 C 151.628906 -353.046875 155.097656 -353.046875 158.484375 -353.046875 C 159.835938 -353.046875 161.023438 -352.960938 162.046875 -352.796875 C 163.066406 -352.628906 164.253906 -352.546875 165.609375 -352.546875 C 167.972656 -351.523438 170.171875 -350.253906 172.203125 -348.734375 C 174.234375 -347.210938 176.265625 -345.769531 178.296875 -344.40625 C 180.328125 -343.050781 182.53125 -341.613281 184.90625 -340.09375 C 187.28125 -338.570312 189.648438 -336.960938 192.015625 -335.265625 C 193.367188 -334.253906 194.890625 -333.238281 196.578125 -332.21875 C 198.273438 -331.207031 199.800781 -330.191406 201.15625 -329.171875 C 205.5625 -326.460938 210.472656 -323.242188 215.890625 -319.515625 C 217.585938 -318.503906 219.195312 -317.488281 220.71875 -316.46875 C 222.238281 -315.457031 223.675781 -314.273438 225.03125 -312.921875 C 225.707031 -312.578125 226.46875 -312.148438 227.3125 -311.640625 C 228.164062 -311.140625 228.929688 -310.550781 229.609375 -309.875 C 236.046875 -305.46875 241.972656 -301.738281 247.390625 -298.6875 C 248.398438 -298.007812 249.410156 -297.25 250.421875 -296.40625 C 251.441406 -295.5625 252.460938 -294.800781 253.484375 -294.125 C 257.210938 -291.75 260.851562 -289.375 264.40625 -287 C 267.957031 -284.632812 271.425781 -282.097656 274.8125 -279.390625 C 278.539062 -277.015625 282.265625 -274.640625 285.984375 -272.265625 C 289.710938 -269.898438 293.269531 -267.363281 296.65625 -264.65625 C 301.738281 -261.613281 306.816406 -258.566406 311.890625 -255.515625 C 316.972656 -252.460938 321.890625 -249.242188 326.640625 -245.859375 C 329.003906 -244.503906 331.203125 -243.148438 333.234375 -241.796875 C 335.265625 -240.441406 337.296875 -238.921875 339.328125 -237.234375 C 340.679688 -236.554688 341.695312 -235.878906 342.375 -235.203125 C 349.488281 -230.796875 356.941406 -225.882812 364.734375 -220.46875 C 365.410156 -220.125 366.085938 -219.78125 366.765625 -219.4375 C 367.441406 -219.101562 367.945312 -218.769531 368.28125 -218.4375 C 372.007812 -215.382812 375.90625 -212.585938 379.96875 -210.046875 C 384.03125 -207.503906 388.265625 -204.878906 392.671875 -202.171875 C 394.367188 -200.816406 396.234375 -199.71875 398.265625 -198.875 C 400.296875 -198.03125 402.15625 -197.097656 403.84375 -196.078125 C 407.226562 -193.710938 410.53125 -191.425781 413.75 -189.21875 C 416.96875 -187.019531 420.269531 -184.90625 423.65625 -182.875 C 426.363281 -181.519531 428.988281 -179.992188 431.53125 -178.296875 C 434.070312 -176.609375 436.53125 -174.914062 438.90625 -173.21875 C 440.9375 -171.863281 442.878906 -170.59375 444.734375 -169.40625 C 446.597656 -168.226562 448.378906 -167.128906 450.078125 -166.109375 C 452.109375 -164.753906 454.222656 -163.398438 456.421875 -162.046875 C 458.617188 -160.691406 460.738281 -159.335938 462.78125 -157.984375 C 466.164062 -155.953125 469.460938 -153.921875 472.671875 -151.890625 C 475.890625 -149.859375 479.191406 -147.65625 482.578125 -145.28125 C 488.003906 -141.894531 493.253906 -138.253906 498.328125 -134.359375 C 503.410156 -130.460938 508.492188 -126.65625 513.578125 -122.9375 C 515.265625 -121.582031 516.953125 -120.394531 518.640625 -119.375 C 520.335938 -118.363281 522.035156 -117.179688 523.734375 -115.828125 C 524.410156 -115.484375 524.914062 -115.140625 525.25 -114.796875 C 525.59375 -114.460938 525.929688 -114.125 526.265625 -113.78125 C 526.265625 -118.53125 526.265625 -123.273438 526.265625 -128.015625 C 526.265625 -132.753906 526.265625 -137.328125 526.265625 -141.734375 C 525.929688 -149.179688 525.847656 -156.628906 526.015625 -164.078125 C 526.179688 -171.523438 525.925781 -178.976562 525.25 -186.4375 C 524.914062 -192.863281 524.832031 -199.125 525 -205.21875 C 525.164062 -211.320312 525.25 -217.585938 525.25 -224.015625 C 525.25 -226.722656 525.25 -229.429688 525.25 -232.140625 C 525.25 -234.859375 525.421875 -237.398438 525.765625 -239.765625 C 525.765625 -241.117188 525.847656 -242.300781 526.015625 -243.3125 C 526.179688 -244.332031 526.4375 -245.519531 526.78125 -246.875 C 526.78125 -247.550781 526.78125 -248.226562 526.78125 -248.90625 C 526.78125 -249.582031 526.78125 -250.257812 526.78125 -250.9375 C 526.4375 -252.976562 526.265625 -255.015625 526.265625 -257.046875 C 526.265625 -259.078125 526.265625 -261.109375 526.265625 -263.140625 C 526.265625 -267.535156 526.265625 -271.847656 526.265625 -276.078125 C 526.265625 -280.316406 525.925781 -284.640625 525.25 -289.046875 C 524.914062 -292.765625 524.832031 -296.316406 525 -299.703125 C 525.164062 -303.097656 525.082031 -306.488281 524.75 -309.875 C 524.40625 -314.269531 524.234375 -318.5 524.234375 -322.5625 C 524.234375 -326.632812 524.234375 -330.703125 524.234375 -334.765625 C 524.234375 -337.128906 524.316406 -339.582031 524.484375 -342.125 C 524.660156 -344.664062 524.914062 -347.125 525.25 -349.5 C 525.925781 -349.5 526.601562 -349.582031 527.28125 -349.75 C 527.957031 -349.914062 528.632812 -350 529.3125 -350 C 531.351562 -350.675781 533.390625 -351.015625 535.421875 -351.015625 C 537.453125 -351.015625 539.484375 -351.1875 541.515625 -351.53125 C 541.847656 -351.53125 542.015625 -351.53125 542.015625 -351.53125 C 542.015625 -351.53125 542.1875 -351.53125 542.53125 -351.53125 C 545.238281 -351.1875 547.773438 -351.015625 550.140625 -351.015625 C 552.515625 -351.015625 554.890625 -351.015625 557.265625 -351.015625 C 558.953125 -351.015625 560.554688 -351.179688 562.078125 -351.515625 C 563.609375 -351.859375 565.050781 -352.03125 566.40625 -352.03125 C 568.769531 -352.375 571.050781 -352.710938 573.25 -353.046875 C 575.457031 -353.390625 577.75 -353.390625 580.125 -353.046875 C 585.875 -352.710938 591.796875 -352.546875 597.890625 -352.546875 C 603.992188 -352.546875 610.09375 -352.546875 616.1875 -352.546875 C 617.875 -352.546875 619.648438 -352.628906 621.515625 -352.796875 C 623.378906 -352.960938 625.160156 -353.046875 626.859375 -353.046875 C 629.566406 -353.046875 632.101562 -352.960938 634.46875 -352.796875 C 636.84375 -352.628906 639.210938 -352.546875 641.578125 -352.546875 C 642.929688 -352.546875 644.285156 -352.628906 645.640625 -352.796875 C 647.003906 -352.960938 648.363281 -353.046875 649.71875 -353.046875 C 650.050781 -353.046875 650.472656 -353.046875 650.984375 -353.046875 C 651.492188 -353.046875 651.914062 -353.046875 652.25 -353.046875 C 651.914062 -351.359375 651.75 -349.75 651.75 -348.21875 C 651.75 -346.695312 651.75 -345.085938 651.75 -343.390625 C 651.75 -337.972656 651.832031 -332.640625 652 -327.390625 C 652.164062 -322.140625 652.25 -316.640625 652.25 -310.890625 C 652.59375 -308.515625 652.847656 -305.882812 653.015625 -303 C 653.179688 -300.125 653.4375 -297.332031 653.78125 -294.625 C 653.78125 -294.289062 653.78125 -293.867188 653.78125 -293.359375 C 653.78125 -292.847656 653.78125 -292.253906 653.78125 -291.578125 C 653.78125 -287.179688 653.78125 -282.863281 653.78125 -278.625 C 653.78125 -274.394531 653.78125 -270.25 653.78125 -266.1875 C 653.78125 -264.832031 653.691406 -263.390625 653.515625 -261.859375 C 653.347656 -260.335938 653.097656 -258.734375 652.765625 -257.046875 C 652.765625 -256.367188 652.675781 -255.601562 652.5 -254.75 C 652.332031 -253.90625 652.25 -253.144531 652.25 -252.46875 C 652.25 -241.96875 652.25 -231.296875 652.25 -220.453125 C 652.25 -209.617188 652.421875 -198.785156 652.765625 -187.953125 C 653.097656 -178.472656 653.179688 -168.90625 653.015625 -159.25 C 652.847656 -149.601562 652.929688 -139.867188 653.265625 -130.046875 C 653.265625 -126.660156 653.265625 -123.359375 653.265625 -120.140625 C 653.265625 -116.921875 653.4375 -113.617188 653.78125 -110.234375 C 654.457031 -103.796875 654.707031 -97.53125 654.53125 -91.4375 C 654.363281 -85.34375 654.28125 -79.25 654.28125 -73.15625 C 654.28125 -68.070312 654.28125 -62.988281 654.28125 -57.90625 C 654.28125 -52.832031 654.453125 -47.753906 654.796875 -42.671875 C 654.796875 -38.265625 654.796875 -34.03125 654.796875 -29.96875 C 654.796875 -25.90625 654.796875 -21.671875 654.796875 -17.265625 C 655.128906 -15.910156 655.210938 -14.640625 655.046875 -13.453125 C 654.878906 -12.273438 654.796875 -11.007812 654.796875 -9.65625 C 654.453125 -8.300781 654.363281 -6.691406 654.53125 -4.828125 C 654.707031 -2.960938 654.796875 -1.179688 654.796875 0.515625 C 654.117188 0.847656 652.929688 1.015625 651.234375 1.015625 C 644.460938 1.015625 637.601562 1.015625 630.65625 1.015625 C 623.71875 1.015625 616.863281 1.1875 610.09375 1.53125 C 606.707031 1.53125 603.148438 1.441406 599.421875 1.265625 C 595.691406 1.097656 591.96875 1.1875 588.25 1.53125 C 585.875 1.53125 583.414062 1.613281 580.875 1.78125 C 578.332031 1.945312 575.707031 2.203125 573 2.546875 C 572.664062 2.546875 572.242188 2.546875 571.734375 2.546875 C 571.222656 2.546875 570.628906 2.546875 569.953125 2.546875 C 566.566406 2.546875 563.179688 2.546875 559.796875 2.546875 C 556.410156 2.546875 553.023438 2.546875 549.640625 2.546875 C 546.585938 2.203125 543.625 1.945312 540.75 1.78125 C 537.875 1.613281 535.082031 1.53125 532.375 1.53125 C 531.007812 1.53125 529.648438 1.53125 528.296875 1.53125 C 526.941406 1.53125 525.421875 1.53125 523.734375 1.53125 C 522.378906 0.164062 520.851562 -1.101562 519.15625 -2.28125 C 517.46875 -3.46875 515.773438 -4.570312 514.078125 -5.59375 C 510.691406 -8.300781 507.132812 -10.921875 503.40625 -13.453125 C 499.6875 -15.992188 495.960938 -18.453125 492.234375 -20.828125 C 489.867188 -22.523438 487.5 -24.050781 485.125 -25.40625 C 482.75 -26.757812 480.207031 -28.113281 477.5 -29.46875 C 475.46875 -30.820312 473.4375 -32.175781 471.40625 -33.53125 C 469.375 -34.882812 467.515625 -36.238281 465.828125 -37.59375 C 461.078125 -41.3125 456.332031 -44.359375 451.59375 -46.734375 C 448.550781 -48.429688 445.585938 -50.378906 442.703125 -52.578125 C 439.828125 -54.773438 437.035156 -56.722656 434.328125 -58.421875 C 432.628906 -60.109375 430.765625 -61.546875 428.734375 -62.734375 C 426.703125 -63.921875 424.671875 -65.191406 422.640625 -66.546875 C 419.929688 -68.921875 417.050781 -70.785156 414 -72.140625 C 413.320312 -72.816406 412.304688 -73.492188 410.953125 -74.171875 C 407.566406 -75.859375 404.265625 -77.71875 401.046875 -79.75 C 397.835938 -81.78125 394.535156 -83.644531 391.140625 -85.34375 C 385.046875 -89.738281 379.125 -93.632812 373.375 -97.03125 C 372.019531 -98.039062 370.75 -98.96875 369.5625 -99.8125 C 368.375 -100.664062 367.101562 -101.597656 365.75 -102.609375 C 363.71875 -103.628906 361.851562 -104.984375 360.15625 -106.671875 C 358.125 -108.367188 356.09375 -110.0625 354.0625 -111.75 C 352.03125 -113.445312 350 -115.144531 347.96875 -116.84375 C 343.90625 -120.226562 339.671875 -123.359375 335.265625 -126.234375 C 330.867188 -129.109375 326.46875 -132.070312 322.0625 -135.125 C 319.6875 -136.8125 317.398438 -138.332031 315.203125 -139.6875 C 313.003906 -141.050781 310.890625 -142.410156 308.859375 -143.765625 C 306.484375 -145.453125 304.191406 -147.140625 301.984375 -148.828125 C 299.785156 -150.523438 297.671875 -152.050781 295.640625 -153.40625 C 293.953125 -154.425781 292.175781 -155.523438 290.3125 -156.703125 C 288.445312 -157.890625 286.671875 -158.992188 284.984375 -160.015625 C 283.628906 -161.023438 282.101562 -162.125 280.40625 -163.3125 C 278.71875 -164.5 277.023438 -165.601562 275.328125 -166.625 C 272.273438 -168.65625 269.222656 -170.597656 266.171875 -172.453125 C 263.128906 -174.316406 260.085938 -176.265625 257.046875 -178.296875 C 256.367188 -178.972656 255.601562 -179.648438 254.75 -180.328125 C 253.90625 -181.003906 253.144531 -181.515625 252.46875 -181.859375 C 249.757812 -184.234375 246.878906 -186.347656 243.828125 -188.203125 C 240.785156 -190.066406 237.738281 -192.015625 234.6875 -194.046875 C 232.320312 -195.398438 230.035156 -196.671875 227.828125 -197.859375 C 225.628906 -199.046875 223.34375 -200.316406 220.96875 -201.671875 C 218.9375 -203.023438 216.90625 -204.289062 214.875 -205.46875 C 212.84375 -206.65625 210.8125 -207.929688 208.78125 -209.296875 C 205.726562 -211.660156 202.675781 -213.941406 199.625 -216.140625 C 196.582031 -218.347656 193.539062 -220.632812 190.5 -223 C 187.113281 -225.375 183.722656 -227.660156 180.328125 -229.859375 C 176.941406 -232.066406 173.390625 -234.1875 169.671875 -236.21875 C 167.640625 -236.894531 166.113281 -237.570312 165.09375 -238.25 C 165.09375 -236.894531 165.09375 -235.625 165.09375 -234.4375 C 165.09375 -233.25 165.09375 -231.976562 165.09375 -230.625 C 165.4375 -229.945312 165.609375 -228.757812 165.609375 -227.0625 C 165.609375 -218.257812 165.609375 -209.285156 165.609375 -200.140625 C 165.609375 -191.003906 165.609375 -182.03125 165.609375 -173.21875 C 165.609375 -170.851562 165.609375 -168.3125 165.609375 -165.59375 C 165.609375 -162.882812 165.4375 -160.175781 165.09375 -157.46875 C 164.757812 -155.4375 164.59375 -153.40625 164.59375 -151.375 C 164.59375 -149.34375 164.421875 -147.484375 164.078125 -145.796875 C 164.078125 -133.597656 164.242188 -121.398438 164.578125 -109.203125 C 164.921875 -97.015625 164.753906 -84.828125 164.078125 -72.640625 C 163.742188 -60.785156 163.660156 -48.847656 163.828125 -36.828125 C 163.992188 -24.804688 163.910156 -12.703125 163.578125 -0.515625 C 163.578125 -0.171875 163.578125 0.164062 163.578125 0.5 C 163.578125 0.84375 163.578125 1.351562 163.578125 2.03125 C 162.210938 2.03125 160.769531 2.113281 159.25 2.28125 C 157.726562 2.457031 156.117188 2.546875 154.421875 2.546875 C 146.640625 2.546875 138.769531 2.546875 130.8125 2.546875 C 122.851562 2.546875 114.976562 2.546875 107.1875 2.546875 C 101.769531 2.878906 96.519531 3.046875 91.4375 3.046875 C 86.351562 3.046875 81.273438 3.21875 76.203125 3.5625 C 72.816406 3.894531 69.34375 4.0625 65.78125 4.0625 C 62.226562 4.0625 58.585938 4.0625 54.859375 4.0625 C 51.816406 4.0625 48.769531 4.144531 45.71875 4.3125 C 42.664062 4.488281 39.617188 4.578125 36.578125 4.578125 C 36.234375 2.878906 35.976562 1.351562 35.8125 0 C 35.644531 -1.351562 35.5625 -2.707031 35.5625 -4.0625 C 35.5625 -10.15625 35.5625 -16.332031 35.5625 -22.59375 C 35.5625 -28.863281 35.5625 -35.046875 35.5625 -41.140625 C 35.5625 -43.847656 35.644531 -46.300781 35.8125 -48.5 C 35.976562 -50.707031 36.234375 -53 36.578125 -55.375 C 36.910156 -56.050781 37.078125 -57.066406 37.078125 -58.421875 C 37.078125 -71.960938 37.078125 -85.503906 37.078125 -99.046875 C 37.078125 -112.597656 36.910156 -126.148438 36.578125 -139.703125 C 36.578125 -145.453125 36.488281 -151.117188 36.3125 -156.703125 C 36.144531 -162.296875 36.0625 -167.800781 36.0625 -173.21875 C 36.0625 -179.988281 36.144531 -186.675781 36.3125 -193.28125 C 36.488281 -199.882812 36.742188 -206.40625 37.078125 -212.84375 C 37.078125 -215.894531 37.078125 -218.859375 37.078125 -221.734375 C 37.078125 -224.609375 37.25 -227.398438 37.59375 -230.109375 C 38.269531 -237.566406 38.519531 -244.9375 38.34375 -252.21875 C 38.175781 -259.5 38.09375 -266.691406 38.09375 -273.796875 C 38.09375 -279.554688 38.09375 -285.484375 38.09375 -291.578125 C 38.09375 -297.679688 38.09375 -303.609375 38.09375 -309.359375 C 38.4375 -312.066406 38.691406 -314.601562 38.859375 -316.96875 C 39.023438 -319.34375 39.28125 -321.71875 39.625 -324.09375 C 39.625 -324.4375 39.625 -324.691406 39.625 -324.859375 C 39.625 -325.023438 39.625 -325.28125 39.625 -325.625 C 39.28125 -327.65625 39.109375 -329.6875 39.109375 -331.71875 C 39.109375 -333.75 38.941406 -335.609375 38.609375 -337.296875 C 38.265625 -339.328125 38.09375 -341.441406 38.09375 -343.640625 C 38.09375 -345.847656 38.09375 -347.96875 38.09375 -350 C 38.09375 -350.675781 38.09375 -351.269531 38.09375 -351.78125 C 38.09375 -352.289062 38.09375 -352.710938 38.09375 -353.046875 Z M 38.09375 -353.046875 "/></g></g></g></g></g></svg>